{
    "asset": {
        "generator": "FBX2glTF v0.9.7",
        "version": "2.0"
    },
    "scene": 0,
    "buffers": [
        {
            "byteLength": 12548,
            "uri": "buffer.bin"
        }
    ],
    "bufferViews": [
        {
            "buffer": 0,
            "byteLength": 1506,
            "byteOffset": 0,
            "target": 34963
        },
        {
            "buffer": 0,
            "byteLength": 3312,
            "byteOffset": 1508,
            "target": 34962
        },
        {
            "buffer": 0,
            "byteLength": 3312,
            "byteOffset": 4820,
            "target": 34962
        },
        {
            "buffer": 0,
            "byteLength": 2208,
            "byteOffset": 8132,
            "target": 34962
        },
        {
            "buffer": 0,
            "byteLength": 2208,
            "byteOffset": 10340,
            "target": 34962
        }
    ],
    "scenes": [
        {
            "name": "Root Scene",
            "nodes": [
                0
            ]
        }
    ],
    "accessors": [
        {
            "componentType": 5123,
            "type": "SCALAR",
            "count": 753,
            "bufferView": 0,
            "byteOffset": 0
        },
        {
            "componentType": 5126,
            "type": "VEC3",
            "count": 276,
            "bufferView": 1,
            "byteOffset": 0,
            "min": [
                -0.0164075642824173,
                -0.0137815522029996,
                -2.31266017181042e-06
            ],
            "max": [
                0.0164075531065464,
                0.013781551271677,
                0.0558004081249237
            ]
        },
        {
            "componentType": 5126,
            "type": "VEC3",
            "count": 276,
            "bufferView": 2,
            "byteOffset": 0
        },
        {
            "componentType": 5126,
            "type": "VEC2",
            "count": 276,
            "bufferView": 3,
            "byteOffset": 0
        },
        {
            "componentType": 5126,
            "type": "VEC2",
            "count": 276,
            "bufferView": 4,
            "byteOffset": 0
        }
    ],
    "images": [
        {
            "name": "c2.png",
            "uri": "c2.png"
        }
    ],
    "samplers": [
        {}
    ],
    "textures": [
        {
            "name": "贴图 #14",
            "sampler": 0,
            "source": 0
        }
    ],
    "materials": [
        {
            "name": "Material #78",
            "alphaMode": "BLEND",
            "extras": {
                "fromFBX": {
                    "shadingModel": "Phong",
                    "isTruePBR": false
                }
            },
            "pbrMetallicRoughness": {
                "baseColorTexture": {
                    "index": 0,
                    "texCoord": 0
                },
                "baseColorFactor": [
                    1.0,
                    1.0,
                    1.0,
                    1.0
                ],
                "metallicFactor": 0.400000005960464,
                "roughnessFactor": 0.70710676908493
            }
        }
    ],
    "meshes": [
        {
            "name": "Cylinder020",
            "primitives": [
                {
                    "material": 0,
                    "mode": 4,
                    "attributes": {
                        "NORMAL": 2,
                        "POSITION": 1,
                        "TEXCOORD_0": 3,
                        "TEXCOORD_1": 4
                    },
                    "indices": 0
                }
            ]
        }
    ],
    "nodes": [
        {
            "name": "RootNode",
            "translation": [
                0.0,
                0.0,
                0.0
            ],
            "rotation": [
                0.0,
                0.0,
                0.0,
                1.0
            ],
            "scale": [
                1.0,
                1.0,
                1.0
            ],
            "children": [
                1
            ]
        },
        {
            "name": "Cylinder020",
            "translation": [
                0.0,
                0.0,
                0.0
            ],
            "rotation": [
                -0.70710676908493,
                -0.0,
                0.0,
                0.70710676908493
            ],
            "scale": [
                214.164993286133,
                214.164993286133,
                214.164993286133
            ],
            "mesh": 0
        }
    ]
}