{
    "asset": {
        "generator": "FBX2glTF v0.9.7",
        "version": "2.0"
    },
    "scene": 0,
    "buffers": [
        {
            "byteLength": 87484,
            "uri": "buffer.bin"
        }
    ],
    "bufferViews": [
        {
            "buffer": 0,
            "byteLength": 2232,
            "byteOffset": 0,
            "target": 34963
        },
        {
            "buffer": 0,
            "byteLength": 5004,
            "byteOffset": 2232,
            "target": 34962
        },
        {
            "buffer": 0,
            "byteLength": 5004,
            "byteOffset": 7236,
            "target": 34962
        },
        {
            "buffer": 0,
            "byteLength": 3336,
            "byteOffset": 12240,
            "target": 34962
        },
        {
            "buffer": 0,
            "byteLength": 3336,
            "byteOffset": 15576,
            "target": 34962
        },
        {
            "buffer": 0,
            "byteLength": 7212,
            "byteOffset": 18912,
            "target": 34963
        },
        {
            "buffer": 0,
            "byteLength": 18408,
            "byteOffset": 26124,
            "target": 34962
        },
        {
            "buffer": 0,
            "byteLength": 18408,
            "byteOffset": 44532,
            "target": 34962
        },
        {
            "buffer": 0,
            "byteLength": 12272,
            "byteOffset": 62940,
            "target": 34962
        },
        {
            "buffer": 0,
            "byteLength": 12272,
            "byteOffset": 75212,
            "target": 34962
        }
    ],
    "scenes": [
        {
            "name": "Root Scene",
            "nodes": [
                0
            ]
        }
    ],
    "accessors": [
        {
            "componentType": 5123,
            "type": "SCALAR",
            "count": 1116,
            "bufferView": 0,
            "byteOffset": 0
        },
        {
            "componentType": 5126,
            "type": "VEC3",
            "count": 417,
            "bufferView": 1,
            "byteOffset": 0,
            "min": [
                -0.0741649195551872,
                0.654116451740265,
                -1.14440915410796e-07
            ],
            "max": [
                0.0741649642586708,
                0.800414383411407,
                0.8684201836586
            ]
        },
        {
            "componentType": 5126,
            "type": "VEC3",
            "count": 417,
            "bufferView": 2,
            "byteOffset": 0
        },
        {
            "componentType": 5126,
            "type": "VEC2",
            "count": 417,
            "bufferView": 3,
            "byteOffset": 0
        },
        {
            "componentType": 5126,
            "type": "VEC2",
            "count": 417,
            "bufferView": 4,
            "byteOffset": 0
        },
        {
            "componentType": 5123,
            "type": "SCALAR",
            "count": 3606,
            "bufferView": 5,
            "byteOffset": 0
        },
        {
            "componentType": 5126,
            "type": "VEC3",
            "count": 1534,
            "bufferView": 6,
            "byteOffset": 0,
            "min": [
                -0.047534141689539,
                -0.800413489341736,
                -1.14440915410796e-07
            ],
            "max": [
                0.0382567569613457,
                0.654125511646271,
                0.509653210639954
            ]
        },
        {
            "componentType": 5126,
            "type": "VEC3",
            "count": 1534,
            "bufferView": 7,
            "byteOffset": 0
        },
        {
            "componentType": 5126,
            "type": "VEC2",
            "count": 1534,
            "bufferView": 8,
            "byteOffset": 0
        },
        {
            "componentType": 5126,
            "type": "VEC2",
            "count": 1534,
            "bufferView": 9,
            "byteOffset": 0
        }
    ],
    "images": [
        {
            "name": "bud_cdp_dxbd071.jpg",
            "uri": "bud_cdp_dxbd071.jpg"
        },
        {
            "name": "bud_cdp_dxbd072.jpg",
            "uri": "bud_cdp_dxbd072.jpg"
        }
    ],
    "samplers": [
        {}
    ],
    "textures": [
        {
            "name": "贴图 #31",
            "sampler": 0,
            "source": 0
        },
        {
            "name": "贴图 #30",
            "sampler": 0,
            "source": 1
        }
    ],
    "materials": [
        {
            "name": "Material #2131937295",
            "alphaMode": "OPAQUE",
            "extras": {
                "fromFBX": {
                    "shadingModel": "Phong",
                    "isTruePBR": false
                }
            },
            "pbrMetallicRoughness": {
                "baseColorTexture": {
                    "index": 0,
                    "texCoord": 0
                },
                "baseColorFactor": [
                    1.0,
                    1.0,
                    1.0,
                    1.0
                ],
                "metallicFactor": 0.400000005960464,
                "roughnessFactor": 0.70710676908493
            }
        },
        {
            "name": "Material #2131937282",
            "alphaMode": "OPAQUE",
            "extras": {
                "fromFBX": {
                    "shadingModel": "Phong",
                    "isTruePBR": false
                }
            },
            "pbrMetallicRoughness": {
                "baseColorTexture": {
                    "index": 1,
                    "texCoord": 0
                },
                "baseColorFactor": [
                    1.0,
                    1.0,
                    1.0,
                    1.0
                ],
                "metallicFactor": 0.400000005960464,
                "roughnessFactor": 0.70710676908493
            }
        }
    ],
    "meshes": [
        {
            "name": "Box2131636918",
            "primitives": [
                {
                    "material": 0,
                    "mode": 4,
                    "attributes": {
                        "NORMAL": 2,
                        "POSITION": 1,
                        "TEXCOORD_0": 3,
                        "TEXCOORD_1": 4
                    },
                    "indices": 0
                },
                {
                    "material": 1,
                    "mode": 4,
                    "attributes": {
                        "NORMAL": 7,
                        "POSITION": 6,
                        "TEXCOORD_0": 8,
                        "TEXCOORD_1": 9
                    },
                    "indices": 5
                }
            ]
        }
    ],
    "nodes": [
        {
            "name": "RootNode",
            "translation": [
                0.0,
                0.0,
                0.0
            ],
            "rotation": [
                0.0,
                0.0,
                0.0,
                1.0
            ],
            "scale": [
                1.0,
                1.0,
                1.0
            ],
            "children": [
                1
            ]
        },
        {
            "name": "Box2131636918",
            "translation": [
                0.0,
                0.0,
                0.0
            ],
            "rotation": [
                -0.5,
                0.5,
                0.5,
                0.5
            ],
            "scale": [
                1.0,
                1.0,
                1.0
            ],
            "mesh": 0
        }
    ]
}