{
    "asset": {
        "generator": "FBX2glTF v0.9.7",
        "version": "2.0"
    },
    "scene": 0,
    "buffers": [
        {
            "byteLength": 35996,
            "uri": "buffer.bin"
        }
    ],
    "bufferViews": [
        {
            "buffer": 0,
            "byteLength": 2316,
            "byteOffset": 0,
            "target": 34963
        },
        {
            "buffer": 0,
            "byteLength": 10104,
            "byteOffset": 2316,
            "target": 34962
        },
        {
            "buffer": 0,
            "byteLength": 10104,
            "byteOffset": 12420,
            "target": 34962
        },
        {
            "buffer": 0,
            "byteLength": 6736,
            "byteOffset": 22524,
            "target": 34962
        },
        {
            "buffer": 0,
            "byteLength": 6736,
            "byteOffset": 29260,
            "target": 34962
        }
    ],
    "scenes": [
        {
            "name": "Root Scene",
            "nodes": [
                0
            ]
        }
    ],
    "accessors": [
        {
            "componentType": 5123,
            "type": "SCALAR",
            "count": 1158,
            "bufferView": 0,
            "byteOffset": 0
        },
        {
            "componentType": 5126,
            "type": "VEC3",
            "count": 842,
            "bufferView": 1,
            "byteOffset": 0,
            "min": [
                -0.0211418941617012,
                -0.0505962744355202,
                -0.0211232490837574
            ],
            "max": [
                0.0211418978869915,
                4.52995294608627e-07,
                0.0211232490837574
            ]
        },
        {
            "componentType": 5126,
            "type": "VEC3",
            "count": 842,
            "bufferView": 2,
            "byteOffset": 0
        },
        {
            "componentType": 5126,
            "type": "VEC2",
            "count": 842,
            "bufferView": 3,
            "byteOffset": 0
        },
        {
            "componentType": 5126,
            "type": "VEC2",
            "count": 842,
            "bufferView": 4,
            "byteOffset": 0
        }
    ],
    "images": [
        {
            "name": "b4.png",
            "uri": "b4.png"
        }
    ],
    "samplers": [
        {}
    ],
    "textures": [
        {
            "name": "贴图 #8",
            "sampler": 0,
            "source": 0
        }
    ],
    "materials": [
        {
            "name": "Material #75",
            "alphaMode": "BLEND",
            "extras": {
                "fromFBX": {
                    "shadingModel": "Phong",
                    "isTruePBR": false
                }
            },
            "pbrMetallicRoughness": {
                "baseColorTexture": {
                    "index": 0,
                    "texCoord": 0
                },
                "baseColorFactor": [
                    1.0,
                    1.0,
                    1.0,
                    1.0
                ],
                "metallicFactor": 0.400000005960464,
                "roughnessFactor": 0.70710676908493
            }
        }
    ],
    "meshes": [
        {
            "name": "Object099",
            "primitives": [
                {
                    "material": 0,
                    "mode": 4,
                    "attributes": {
                        "NORMAL": 2,
                        "POSITION": 1,
                        "TEXCOORD_0": 3,
                        "TEXCOORD_1": 4
                    },
                    "indices": 0
                }
            ]
        }
    ],
    "nodes": [
        {
            "name": "RootNode",
            "translation": [
                0.0,
                0.0,
                0.0
            ],
            "rotation": [
                0.0,
                0.0,
                0.0,
                1.0
            ],
            "scale": [
                1.0,
                1.0,
                1.0
            ],
            "children": [
                1
            ]
        },
        {
            "name": "Object099",
            "translation": [
                -3.814697265625e-06,
                0.0,
                -2.86102294921875e-06
            ],
            "rotation": [
                -1.3358362416227e-08,
                0.943264365196228,
                4.47218191368393e-08,
                -0.332042664289474
            ],
            "scale": [
                -237.173629760742,
                -237.173706054688,
                -237.173629760742
            ],
            "mesh": 0
        }
    ]
}