{
    "asset": {
        "generator": "FBX2glTF v0.9.7",
        "version": "2.0"
    },
    "scene": 0,
    "buffers": [
        {
            "byteLength": 327960,
            "uri": "buffer.bin"
        }
    ],
    "bufferViews": [
        {
            "buffer": 0,
            "byteLength": 1080,
            "byteOffset": 0,
            "target": 34963
        },
        {
            "buffer": 0,
            "byteLength": 3024,
            "byteOffset": 1080,
            "target": 34962
        },
        {
            "buffer": 0,
            "byteLength": 3024,
            "byteOffset": 4104,
            "target": 34962
        },
        {
            "buffer": 0,
            "byteLength": 2016,
            "byteOffset": 7128,
            "target": 34962
        },
        {
            "buffer": 0,
            "byteLength": 2712,
            "byteOffset": 9144,
            "target": 34963
        },
        {
            "buffer": 0,
            "byteLength": 6096,
            "byteOffset": 11856,
            "target": 34962
        },
        {
            "buffer": 0,
            "byteLength": 6096,
            "byteOffset": 17952,
            "target": 34962
        },
        {
            "buffer": 0,
            "byteLength": 4064,
            "byteOffset": 24048,
            "target": 34962
        },
        {
            "buffer": 0,
            "byteLength": 96,
            "byteOffset": 28112,
            "target": 34963
        },
        {
            "buffer": 0,
            "byteLength": 384,
            "byteOffset": 28208,
            "target": 34962
        },
        {
            "buffer": 0,
            "byteLength": 384,
            "byteOffset": 28592,
            "target": 34962
        },
        {
            "buffer": 0,
            "byteLength": 256,
            "byteOffset": 28976,
            "target": 34962
        },
        {
            "buffer": 0,
            "byteLength": 26472,
            "byteOffset": 29232,
            "target": 34963
        },
        {
            "buffer": 0,
            "byteLength": 102096,
            "byteOffset": 55704,
            "target": 34962
        },
        {
            "buffer": 0,
            "byteLength": 102096,
            "byteOffset": 157800,
            "target": 34962
        },
        {
            "buffer": 0,
            "byteLength": 68064,
            "byteOffset": 259896,
            "target": 34962
        }
    ],
    "scenes": [
        {
            "name": "Root Scene",
            "nodes": [
                0
            ]
        }
    ],
    "accessors": [
        {
            "componentType": 5123,
            "type": "SCALAR",
            "count": 540,
            "bufferView": 0,
            "byteOffset": 0
        },
        {
            "componentType": 5126,
            "type": "VEC3",
            "count": 252,
            "bufferView": 1,
            "byteOffset": 0,
            "min": [
                -0.0105853984132409,
                0.000843614339828491,
                3.44753266290354e-06
            ],
            "max": [
                0.00972450710833073,
                0.00412645749747753,
                0.0748708099126816
            ]
        },
        {
            "componentType": 5126,
            "type": "VEC3",
            "count": 252,
            "bufferView": 2,
            "byteOffset": 0
        },
        {
            "componentType": 5126,
            "type": "VEC2",
            "count": 252,
            "bufferView": 3,
            "byteOffset": 0
        },
        {
            "componentType": 5123,
            "type": "SCALAR",
            "count": 1356,
            "bufferView": 4,
            "byteOffset": 0
        },
        {
            "componentType": 5126,
            "type": "VEC3",
            "count": 508,
            "bufferView": 5,
            "byteOffset": 0,
            "min": [
                -0.0126511640846729,
                -0.00758603680878878,
                0.0139365531504154
            ],
            "max": [
                0.013994668610394,
                0.00758603680878878,
                0.0839365571737289
            ]
        },
        {
            "componentType": 5126,
            "type": "VEC3",
            "count": 508,
            "bufferView": 6,
            "byteOffset": 0
        },
        {
            "componentType": 5126,
            "type": "VEC2",
            "count": 508,
            "bufferView": 7,
            "byteOffset": 0
        },
        {
            "componentType": 5123,
            "type": "SCALAR",
            "count": 48,
            "bufferView": 8,
            "byteOffset": 0
        },
        {
            "componentType": 5126,
            "type": "VEC3",
            "count": 32,
            "bufferView": 9,
            "byteOffset": 0,
            "min": [
                -0.0129959052428603,
                -0.000131388602312654,
                0.0555839464068413
            ],
            "max": [
                0.01213997323066,
                0.00511549832299352,
                0.067997433245182
            ]
        },
        {
            "componentType": 5126,
            "type": "VEC3",
            "count": 32,
            "bufferView": 10,
            "byteOffset": 0
        },
        {
            "componentType": 5126,
            "type": "VEC2",
            "count": 32,
            "bufferView": 11,
            "byteOffset": 0
        },
        {
            "componentType": 5123,
            "type": "SCALAR",
            "count": 13236,
            "bufferView": 12,
            "byteOffset": 0
        },
        {
            "componentType": 5126,
            "type": "VEC3",
            "count": 8508,
            "bufferView": 13,
            "byteOffset": 0,
            "min": [
                -0.0139946695417166,
                -0.00115571112837642,
                0.054348349571228
            ],
            "max": [
                0.0131339309737086,
                0.00614104140549898,
                0.0724239647388458
            ]
        },
        {
            "componentType": 5126,
            "type": "VEC3",
            "count": 8508,
            "bufferView": 14,
            "byteOffset": 0
        },
        {
            "componentType": 5126,
            "type": "VEC2",
            "count": 8508,
            "bufferView": 15,
            "byteOffset": 0
        }
    ],
    "images": [
        {
            "name": "015.png",
            "uri": "015.png"
        },
        {
            "name": "014.png",
            "uri": "014.png"
        },
        {
            "name": "011.png",
            "uri": "011.png"
        },
        {
            "name": "006.png",
            "uri": "006.png"
        }
    ],
    "samplers": [
        {}
    ],
    "textures": [
        {
            "name": "贴图 #6",
            "sampler": 0,
            "source": 0
        },
        {
            "name": "贴图 #2",
            "sampler": 0,
            "source": 1
        },
        {
            "name": "贴图 #4",
            "sampler": 0,
            "source": 2
        },
        {
            "name": "贴图 #3",
            "sampler": 0,
            "source": 3
        }
    ],
    "materials": [
        {
            "name": "Material #2131944189",
            "alphaMode": "OPAQUE",
            "extras": {
                "fromFBX": {
                    "shadingModel": "Phong",
                    "isTruePBR": false
                }
            },
            "pbrMetallicRoughness": {
                "baseColorTexture": {
                    "index": 0,
                    "texCoord": 0
                },
                "baseColorFactor": [
                    1.0,
                    1.0,
                    1.0,
                    1.0
                ],
                "metallicFactor": 0.400000005960464,
                "roughnessFactor": 0.70710676908493
            }
        },
        {
            "name": "Material #2131944174",
            "alphaMode": "OPAQUE",
            "extras": {
                "fromFBX": {
                    "shadingModel": "Phong",
                    "isTruePBR": false
                }
            },
            "pbrMetallicRoughness": {
                "baseColorTexture": {
                    "index": 1,
                    "texCoord": 0
                },
                "baseColorFactor": [
                    1.0,
                    1.0,
                    1.0,
                    1.0
                ],
                "metallicFactor": 0.400000005960464,
                "roughnessFactor": 0.70710676908493
            }
        },
        {
            "name": "Material #2131944176",
            "alphaMode": "OPAQUE",
            "extras": {
                "fromFBX": {
                    "shadingModel": "Phong",
                    "isTruePBR": false
                }
            },
            "pbrMetallicRoughness": {
                "baseColorTexture": {
                    "index": 2,
                    "texCoord": 0
                },
                "baseColorFactor": [
                    1.0,
                    1.0,
                    1.0,
                    1.0
                ],
                "metallicFactor": 0.400000005960464,
                "roughnessFactor": 0.115843921899796
            }
        },
        {
            "name": "Material #2131944175",
            "alphaMode": "OPAQUE",
            "extras": {
                "fromFBX": {
                    "shadingModel": "Phong",
                    "isTruePBR": false
                }
            },
            "pbrMetallicRoughness": {
                "baseColorTexture": {
                    "index": 3,
                    "texCoord": 0
                },
                "baseColorFactor": [
                    1.0,
                    1.0,
                    1.0,
                    1.0
                ],
                "metallicFactor": 0.400000005960464,
                "roughnessFactor": 0.70710676908493
            }
        }
    ],
    "meshes": [
        {
            "name": "Box001",
            "primitives": [
                {
                    "material": 0,
                    "mode": 4,
                    "attributes": {
                        "NORMAL": 2,
                        "POSITION": 1,
                        "TEXCOORD_0": 3
                    },
                    "indices": 0
                },
                {
                    "material": 1,
                    "mode": 4,
                    "attributes": {
                        "NORMAL": 6,
                        "POSITION": 5,
                        "TEXCOORD_0": 7
                    },
                    "indices": 4
                },
                {
                    "material": 2,
                    "mode": 4,
                    "attributes": {
                        "NORMAL": 10,
                        "POSITION": 9,
                        "TEXCOORD_0": 11
                    },
                    "indices": 8
                },
                {
                    "material": 3,
                    "mode": 4,
                    "attributes": {
                        "NORMAL": 14,
                        "POSITION": 13,
                        "TEXCOORD_0": 15
                    },
                    "indices": 12
                }
            ]
        }
    ],
    "nodes": [
        {
            "name": "RootNode",
            "translation": [
                0.0,
                0.0,
                0.0
            ],
            "rotation": [
                0.0,
                0.0,
                0.0,
                1.0
            ],
            "scale": [
                1.0,
                1.0,
                1.0
            ],
            "children": [
                1
            ]
        },
        {
            "name": "Box001",
            "translation": [
                0.0,
                0.0,
                0.0
            ],
            "rotation": [
                -0.70710676908493,
                -0.0,
                0.0,
                0.70710676908493
            ],
            "scale": [
                119.199989318848,
                119.199989318848,
                119.199989318848
            ],
            "mesh": 0
        }
    ]
}