{
    "asset": {
        "generator": "FBX2glTF v0.9.7",
        "version": "2.0"
    },
    "scene": 0,
    "buffers": [
        {
            "byteLength": 851884,
            "uri": "buffer.bin"
        }
    ],
    "bufferViews": [
        {
            "buffer": 0,
            "byteLength": 98334,
            "byteOffset": 0,
            "target": 34963
        },
        {
            "buffer": 0,
            "byteLength": 195000,
            "byteOffset": 98336,
            "target": 34962
        },
        {
            "buffer": 0,
            "byteLength": 195000,
            "byteOffset": 293336,
            "target": 34962
        },
        {
            "buffer": 0,
            "byteLength": 130000,
            "byteOffset": 488336,
            "target": 34962
        },
        {
            "buffer": 0,
            "byteLength": 33708,
            "byteOffset": 618336,
            "target": 34963
        },
        {
            "buffer": 0,
            "byteLength": 74940,
            "byteOffset": 652044,
            "target": 34962
        },
        {
            "buffer": 0,
            "byteLength": 74940,
            "byteOffset": 726984,
            "target": 34962
        },
        {
            "buffer": 0,
            "byteLength": 49960,
            "byteOffset": 801924,
            "target": 34962
        }
    ],
    "scenes": [
        {
            "name": "Root Scene",
            "nodes": [
                0
            ]
        }
    ],
    "accessors": [
        {
            "componentType": 5123,
            "type": "SCALAR",
            "count": 49167,
            "bufferView": 0,
            "byteOffset": 0
        },
        {
            "componentType": 5126,
            "type": "VEC3",
            "count": 16250,
            "bufferView": 1,
            "byteOffset": 0,
            "min": [
                -0.00980224460363388,
                0.000771422986872494,
                -0.0223129186779261
            ],
            "max": [
                0.00980224460363388,
                0.012813663110137,
                0.0223129186779261
            ]
        },
        {
            "componentType": 5126,
            "type": "VEC3",
            "count": 16250,
            "bufferView": 2,
            "byteOffset": 0
        },
        {
            "componentType": 5126,
            "type": "VEC2",
            "count": 16250,
            "bufferView": 3,
            "byteOffset": 0
        },
        {
            "componentType": 5123,
            "type": "SCALAR",
            "count": 16854,
            "bufferView": 4,
            "byteOffset": 0
        },
        {
            "componentType": 5126,
            "type": "VEC3",
            "count": 6245,
            "bufferView": 5,
            "byteOffset": 0,
            "min": [
                -0.00913713406771421,
                9.50324538280256e-05,
                -0.0150551693513989
            ],
            "max": [
                0.00916247442364693,
                0.00666852295398712,
                0.0151685792952776
            ]
        },
        {
            "componentType": 5126,
            "type": "VEC3",
            "count": 6245,
            "bufferView": 6,
            "byteOffset": 0
        },
        {
            "componentType": 5126,
            "type": "VEC2",
            "count": 6245,
            "bufferView": 7,
            "byteOffset": 0
        }
    ],
    "images": [
        {
            "name": "0000.BMP",
            "uri": "0000.BMP"
        },
        {
            "name": "0000.BMP",
            "uri": "0000.BMP"
        }
    ],
    "samplers": [
        {}
    ],
    "textures": [
        {
            "name": "Map #1",
            "sampler": 0,
            "source": 0
        },
        {
            "name": "Map #2",
            "sampler": 0,
            "source": 1
        }
    ],
    "materials": [
        {
            "name": "01 - Default",
            "alphaMode": "OPAQUE",
            "extras": {
                "fromFBX": {
                    "shadingModel": "Phong",
                    "isTruePBR": false
                }
            },
            "pbrMetallicRoughness": {
                "baseColorTexture": {
                    "index": 0,
                    "texCoord": 0
                },
                "baseColorFactor": [
                    1.0,
                    1.0,
                    1.0,
                    1.0
                ],
                "metallicFactor": 0.400000005960464,
                "roughnessFactor": 0.70710676908493
            }
        },
        {
            "name": "02 - Default",
            "alphaMode": "OPAQUE",
            "extras": {
                "fromFBX": {
                    "shadingModel": "Phong",
                    "isTruePBR": false
                }
            },
            "pbrMetallicRoughness": {
                "baseColorTexture": {
                    "index": 1,
                    "texCoord": 0
                },
                "baseColorFactor": [
                    1.0,
                    1.0,
                    1.0,
                    1.0
                ],
                "metallicFactor": 0.400000005960464,
                "roughnessFactor": 0.70710676908493
            }
        }
    ],
    "meshes": [
        {
            "name": "hongse",
            "primitives": [
                {
                    "material": 0,
                    "mode": 4,
                    "attributes": {
                        "NORMAL": 2,
                        "POSITION": 1,
                        "TEXCOORD_0": 3
                    },
                    "indices": 0
                },
                {
                    "material": 1,
                    "mode": 4,
                    "attributes": {
                        "NORMAL": 6,
                        "POSITION": 5,
                        "TEXCOORD_0": 7
                    },
                    "indices": 4
                }
            ]
        }
    ],
    "nodes": [
        {
            "name": "RootNode",
            "translation": [
                0.0,
                0.0,
                0.0
            ],
            "rotation": [
                0.0,
                0.0,
                0.0,
                1.0
            ],
            "scale": [
                1.0,
                1.0,
                1.0
            ],
            "children": [
                1
            ]
        },
        {
            "name": "skyline_gtr01",
            "translation": [
                0.0,
                0.0,
                0.0
            ],
            "rotation": [
                -0.70710676908493,
                -0.0,
                0.0,
                0.70710676908493
            ],
            "scale": [
                100.0,
                100.0,
                100.0
            ],
            "children": [
                2
            ]
        },
        {
            "name": "porsche_911_gt01",
            "translation": [
                0.0,
                0.0,
                0.0
            ],
            "rotation": [
                0.0,
                0.0,
                0.0,
                1.0
            ],
            "scale": [
                1.0,
                1.0,
                1.0
            ],
            "children": [
                3
            ]
        },
        {
            "name": "hongse",
            "translation": [
                -2.82128487238964e-10,
                0.0,
                0.0
            ],
            "rotation": [
                0.5,
                -0.5,
                -0.5,
                0.5
            ],
            "scale": [
                1.0,
                1.0,
                1.0
            ],
            "mesh": 0
        }
    ]
}